<svg xmlns="http://www.w3.org/2000/svg" viewBox="0 0 760 400">    
    <!-- Globe (Left Side) -->
    <circle cx="200" cy="200" r="150" fill="#87cefa" stroke="#2c3e50" stroke-width="2"/>
    
    <!-- Latitude lines on globe -->
    <path d="M 50 200 L 350 200" stroke="#95a5a6" stroke-width="1" stroke-dasharray="5,5"/>
    <ellipse cx="200" cy="140" rx="138" ry="30" fill="none" stroke="white" stroke-width="2" stroke-dasharray="5,5"/>
    <ellipse cx="200" cy="170" rx="148" ry="45" fill="none" stroke="white" stroke-width="2" stroke-dasharray="5,5"/>
    <ellipse cx="200" cy="230" rx="148" ry="45" fill="none" stroke="white" stroke-width="2" stroke-dasharray="5,5"/>
    <ellipse cx="200" cy="260" rx="138" ry="30" fill="none" stroke="white" stroke-width="2" stroke-dasharray="5,5"/>
    
    <!-- Longitude lines on globe -->
    <path d="M 200 50 L 200 350" stroke="white" stroke-width="2" stroke-dasharray="5,5"/>
    <path d="M 200 50 Q 290 125, 290 200 Q 290 275, 200 350" fill="none" stroke="white" stroke-width="2" stroke-dasharray="5,5"/>
    <path d="M 200 50 Q 110 125, 110 200 Q 110 275, 200 350" fill="none" stroke="white" stroke-width="2" stroke-dasharray="5,5"/>
    
    <!-- Projection lines -->
    <path d="M 335 140 L 450 100" stroke="#e74c3c" stroke-width="1.5" stroke-dasharray="5,5"/>
    <path d="M 350 170 L 450 150" stroke="#e74c3c" stroke-width="1.5" stroke-dasharray="5,5"/>
    <path d="M 350 200 L 450 200" stroke="#e74c3c" stroke-width="1.5" stroke-dasharray="5,5"/>
    <path d="M 350 230 L 450 250" stroke="#e74c3c" stroke-width="1.5" stroke-dasharray="5,5"/>
    <path d="M 335 270 L 450 300" stroke="#e74c3c" stroke-width="1.5" stroke-dasharray="5,5"/>
    
    <!-- Projected Map (Right Side) -->
    <rect x="450" y="50" width="300" height="300" fill="#deb887" stroke="#2c3e50" stroke-width="4"/>
    
    <!-- Grid lines on projected map -->
    <path d="M 450 100 L 750 100" stroke="white" stroke-width="2"/>
    <path d="M 450 150 L 750 150" stroke="white" stroke-width="2"/>
    <path d="M 450 200 L 750 200" stroke="white" stroke-width="2"/>
    <path d="M 450 250 L 750 250" stroke="white" stroke-width="2"/>
    <path d="M 450 300 L 750 300" stroke="white" stroke-width="2"/>
    
    <path d="M 525 50 L 525 350" stroke="white" stroke-width="2"/>
    <path d="M 600 50 L 600 350" stroke="white" stroke-width="2"/>
    <path d="M 675 50 L 675 350" stroke="white" stroke-width="2"/>
    
</svg>
